<?xml version="1.0" standalone="no"?>
<!DOCTYPE svg PUBLIC "-//W3C//DTD SVG 20010904//EN"
 "http://www.w3.org/TR/2001/REC-SVG-20010904/DTD/svg10.dtd">
<svg version="1.0" xmlns="http://www.w3.org/2000/svg"
 width="651.000000pt" height="651.000000pt" viewBox="0 0 651.000000 651.000000"
 preserveAspectRatio="xMidYMid meet">
<metadata>
Created by potrace 1.11, written by Peter Selinger 2001-2013
</metadata>
<g transform="translate(0.000000,651.000000) scale(0.100000,-0.100000)"
fill="#000000" stroke="none">
<path d="M559 6208 c-1 -5 -2 -14 -3 -20 -1 -7 -8 -12 -15 -10 -7 1 -10 -2 -6
-8 3 -6 11 -8 16 -5 5 3 7 0 4 -7 -2 -7 -6 -36 -8 -64 -2 -43 0 -51 13 -46 13
5 13 3 1 -11 -11 -14 -11 -17 0 -17 11 0 11 -2 -1 -10 -8 -5 -10 -10 -4 -10 6
0 11 -15 11 -32 -1 -18 4 -32 9 -31 6 1 11 -4 11 -12 0 -8 -4 -12 -8 -9 -4 2
-11 0 -14 -6 -4 -6 -3 -10 2 -9 20 4 24 -2 12 -18 -10 -11 -10 -14 -1 -9 8 4
12 1 12 -9 0 -11 5 -15 14 -12 10 4 13 1 9 -8 -3 -8 -9 -13 -13 -10 -5 3 -12
1 -15 -5 -4 -6 -1 -9 7 -8 7 2 12 -2 11 -9 -2 -8 4 -10 15 -6 14 6 15 4 4 -9
-8 -10 -9 -17 -3 -20 6 -1 12 -15 13 -30 1 -15 7 -26 12 -25 5 1 12 -9 16 -23
4 -15 13 -24 23 -24 9 1 14 -2 11 -7 -3 -5 -13 -9 -22 -10 -12 0 -10 -3 7 -10
15 -6 21 -14 17 -25 -3 -8 -2 -12 4 -9 6 3 10 1 10 -4 0 -6 6 -11 14 -11 8 0
17 -8 21 -17 5 -15 4 -16 -6 -5 -7 6 -17 12 -22 12 -11 0 12 -23 38 -38 11 -6
14 -12 8 -12 -9 0 -7 -6 5 -18 9 -10 23 -27 30 -38 11 -17 11 -17 2 4 -16 32
-3 27 14 -7 9 -16 12 -32 8 -37 -4 -5 2 -2 12 6 18 14 19 13 13 -3 -4 -11 -3
-16 3 -12 6 3 10 1 10 -4 0 -6 8 -11 18 -11 15 0 15 -2 2 -11 -12 -9 -10 -10
8 -6 20 5 22 3 10 -11 -7 -9 -8 -13 -3 -10 6 4 17 2 25 -3 13 -8 13 -10 0 -19
-11 -7 -5 -9 20 -5 19 3 29 3 23 -1 -7 -3 -13 -10 -13 -15 0 -6 4 -7 10 -4 5
3 10 1 10 -4 0 -6 3 -10 8 -10 19 3 33 -2 27 -11 -3 -5 1 -10 10 -10 10 0 13
5 9 13 -5 8 -2 8 9 -2 19 -15 23 -26 5 -15 -7 4 -8 3 -4 -4 4 -7 14 -12 22
-12 9 0 12 -5 8 -12 -4 -6 -3 -8 4 -5 5 4 18 4 27 1 13 -6 14 -9 3 -16 -9 -7
-8 -8 6 -4 11 4 24 0 33 -11 8 -10 12 -12 8 -5 -4 7 0 12 10 12 9 0 14 -4 11
-9 -3 -5 4 -11 15 -14 13 -4 18 -10 13 -18 -4 -8 -3 -10 5 -5 6 4 9 10 7 14
-2 4 7 8 20 8 24 2 24 1 7 -13 -10 -8 -13 -12 -6 -9 6 4 14 0 16 -6 4 -10 6
-10 6 0 1 17 21 15 21 -3 0 -8 5 -15 11 -15 6 0 8 8 5 18 -5 14 -4 14 9 -2 15
-19 50 -33 40 -16 -3 5 8 4 25 -1 17 -6 28 -16 24 -22 -3 -7 2 -3 10 7 16 20
16 20 17 0 0 -18 1 -18 9 1 5 11 9 15 9 8 1 -8 14 -11 36 -9 19 2 33 0 30 -4
-3 -4 2 -11 11 -14 8 -3 12 -2 9 3 -3 5 -1 12 5 16 5 3 10 2 10 -4 0 -6 17 -9
38 -8 20 1 43 -3 51 -7 11 -7 13 -5 7 9 -6 18 -6 18 15 -1 20 -17 22 -17 16
-2 -5 15 -4 16 14 5 16 -10 21 -9 28 2 6 10 10 10 13 1 2 -7 27 -13 65 -13 40
-1 59 2 56 9 -5 12 33 12 44 -1 5 -4 3 -5 -4 -1 -6 3 -14 3 -17 -2 -2 -4 9 -8
25 -7 16 0 29 4 29 9 0 6 5 5 11 -1 12 -12 49 -6 49 9 0 5 5 6 10 3 8 -5 7
-12 -2 -23 -7 -10 1 -6 16 8 16 14 26 19 22 13 -4 -8 -1 -13 8 -13 8 0 17 6
19 13 4 10 6 10 6 0 1 -7 8 -13 17 -13 9 0 12 5 8 13 -4 6 3 3 16 -8 23 -19
23 -19 16 -1 -7 20 -7 20 15 0 20 -17 22 -17 16 -2 -5 15 -4 16 14 5 16 -10
21 -9 28 2 6 10 10 10 13 1 2 -7 27 -13 65 -13 40 -1 59 2 56 9 -5 12 33 12
44 -1 5 -4 3 -5 -4 -1 -6 3 -14 3 -17 -2 -2 -4 9 -8 25 -7 16 0 29 4 29 9 0 6
5 5 11 -1 12 -12 49 -6 49 9 0 5 5 6 10 3 8 -5 7 -12 -2 -23 -7 -10 1 -6 16 8
16 14 26 19 22 13 -4 -8 -1 -13 8 -13 9 0 16 6 16 13 0 8 3 8 8 1 4 -6 16 -14
26 -17 17 -7 17 -6 5 10 -13 17 -13 17 11 2 28 -17 64 -14 53 4 -3 7 2 5 13
-4 20 -16 54 -15 54 2 0 6 5 7 10 4 8 -5 7 -12 -2 -23 -11 -15 -11 -15 3 -5 9
7 20 9 24 5 5 -4 5 -1 1 6 -8 14 10 17 18 3 9 -13 47 -1 39 13 -3 6 2 4 13 -5
20 -16 54 -15 54 2 0 6 5 7 10 4 8 -5 7 -12 -2 -23 -11 -15 -11 -15 3 -5 9 7
20 9 24 5 5 -4 5 -1 1 6 -8 14 10 17 18 3 9 -13 47 -1 39 13 -3 6 2 4 13 -5
20 -16 54 -15 54 2 0 6 5 7 10 4 8 -5 7 -12 -2 -23 -11 -15 -11 -15 3 -5 9 7
20 9 24 5 5 -4 5 -1 1 6 -8 14 10 17 18 3 9 -13 47 -1 39 13 -3 6 2 4 13 -5
20 -16 54 -15 54 2 0 6 5 7 10 4 8 -5 7 -12 -2 -23 -11 -15 -11 -15 3 -5 9 7
20 9 24 5 5 -4 5 -1 1 6 -8 14 10 17 18 3 9 -13 47 -1 39 13 -3 6 2 4 13 -5
20 -16 54 -15 54 2 0 6 5 7 10 4 8 -5 7 -12 -2 -23 -11 -15 -11 -15 3 -5 9 7
20 9 24 5 5 -4 5 -1 1 6 -8 14 10 17 18 3 9 -13 47 -1 39 13 -3 6 2 4 13 -5
20 -16 54 -15 54 2 0 6 5 7 10 4 8 -5 7 -12 -2 -23 -11 -14 -9 -14 8 1 21 18
39 23 30 9 -2 -4 9 -8 25 -7 21 0 28 4 24 14 -4 10 2 8 16 -5 22 -19 22 -19
15 0 -7 20 -7 20 15 0 22 -19 22 -19 15 0 -7 20 -7 20 15 0 12 -10 19 -13 14
-5 -6 11 -4 13 11 7 10 -4 29 -9 42 -11 17 -2 22 1 17 13 -4 12 0 11 16 -4 17
-14 21 -15 17 -4 -4 11 0 16 13 16 14 0 16 -3 6 -15 -10 -12 -9 -13 1 -7 7 4
20 2 29 -6 10 -8 14 -8 10 -1 -4 6 -3 14 3 18 5 3 10 1 10 -6 0 -7 7 -4 16 7
8 10 13 14 10 9 -2 -6 5 -17 16 -24 18 -11 20 -11 15 3 -4 10 -1 13 9 9 7 -3
14 -9 14 -15 0 -5 5 -6 10 -3 6 4 8 12 4 18 -3 7 0 5 8 -3 14 -16 52 -24 42
-9 -3 5 -1 9 4 9 6 0 13 -8 16 -17 5 -12 10 -13 18 -5 8 8 17 8 31 1 14 -8 18
-8 13 0 -4 6 -3 11 3 11 5 0 11 -5 13 -11 5 -15 69 -19 87 -5 11 8 13 8 7 -1
-5 -9 0 -13 18 -13 14 0 28 -5 31 -10 4 -7 12 -7 25 0 11 6 21 6 24 1 4 -5 0
-12 -6 -14 -7 -3 2 -3 20 0 23 4 32 2 32 -8 0 -11 2 -11 10 1 8 13 10 13 10
-1 0 -9 7 -16 15 -16 12 0 12 4 3 16 -10 13 -10 14 2 4 8 -7 22 -13 32 -13 16
0 23 -11 19 -33 -1 -5 3 -6 9 -2 6 3 8 11 5 16 -3 5 1 6 9 3 9 -3 13 -10 10
-15 -3 -5 3 -6 12 -2 11 4 15 3 11 -4 -5 -7 1 -9 15 -5 16 4 19 2 13 -9 -8
-12 -6 -12 8 0 17 13 22 8 19 -20 -1 -3 6 -6 13 -6 12 0 12 3 2 15 -10 13 -9
14 11 3 13 -7 20 -17 16 -23 -5 -7 -1 -9 9 -5 10 4 17 2 17 -5 0 -6 6 -5 16 3
15 12 16 11 9 -11 -7 -23 -7 -24 10 -10 17 14 18 13 12 -2 -3 -10 -3 -17 1
-17 25 4 42 -3 42 -18 0 -15 2 -16 10 -3 7 11 10 11 10 2 0 -8 5 -10 13 -6 7
5 6 0 -3 -11 -8 -10 -10 -16 -4 -12 6 4 22 -2 34 -13 12 -11 26 -17 30 -15 4
3 11 -2 14 -11 4 -10 2 -13 -6 -8 -7 4 -8 3 -4 -5 6 -9 11 -9 21 -1 11 9 12 6
7 -12 -5 -21 -4 -22 13 -8 11 9 16 10 11 3 -4 -7 -2 -13 3 -13 6 0 11 -5 11
-11 0 -5 -5 -7 -12 -3 -7 4 -8 3 -4 -4 4 -6 13 -9 22 -5 9 3 14 0 12 -8 -2 -8
3 -13 9 -12 7 2 13 -4 13 -12 0 -9 9 -26 20 -37 11 -12 19 -27 17 -32 -5 -15
25 -46 37 -39 6 4 5 0 -2 -9 -10 -13 -9 -18 5 -29 17 -13 17 -13 3 6 -14 19
-14 19 3 6 13 -10 14 -17 7 -26 -8 -10 -8 -15 1 -21 8 -5 9 -3 4 6 -6 9 -4 11
5 5 10 -6 9 -11 -6 -23 -13 -10 -14 -13 -3 -9 11 3 22 -5 33 -26 17 -32 17
-32 -1 -9 -18 22 -19 22 -19 3 0 -11 2 -18 4 -16 5 5 32 -21 32 -30 0 -3 -5
-3 -11 1 -7 4 -10 1 -7 -7 3 -8 10 -13 15 -12 6 1 8 -10 5 -24 -4 -20 -2 -24
9 -18 11 6 12 5 2 -6 -17 -17 -17 -32 0 -23 7 5 6 0 -3 -11 -9 -11 -10 -16 -2
-11 7 4 12 1 12 -8 0 -9 -6 -16 -12 -16 -8 0 -6 -5 4 -11 14 -8 15 -15 8 -35
-12 -30 -12 -37 -2 -31 4 3 7 -6 7 -19 0 -13 -4 -24 -10 -24 -5 0 -3 -5 5 -10
13 -9 13 -10 0 -10 -13 0 -13 -1 0 -10 8 -5 10 -10 4 -10 -6 0 -9 -15 -8 -35
2 -20 0 -33 -5 -31 -4 3 -8 -1 -8 -9 0 -8 3 -12 7 -10 4 2 5 -7 2 -20 -2 -14
-7 -23 -11 -20 -4 2 -5 -10 -3 -27 4 -23 1 -29 -8 -23 -9 5 -10 2 -6 -11 3
-11 -1 -32 -9 -48 -8 -15 -12 -32 -9 -37 3 -5 1 -9 -4 -9 -6 0 -12 -10 -16
-22 -8 -32 -79 -138 -123 -185 -125 -132 -366 -253 -596 -299 -60 -12 -198
-34 -247 -39 -30 -3 -73 -8 -95 -11 -22 -3 -625 -7 -1340 -8 -715 -2 -1320 -6
-1345 -10 -104 -16 -223 -60 -315 -119 -60 -37 -192 -167 -227 -222 -48 -76
-77 -133 -71 -139 4 -3 1 -6 -6 -6 -6 0 -11 -6 -9 -12 3 -18 -12 -58 -22 -58
-4 0 -6 -10 -2 -22 3 -13 1 -19 -5 -15 -7 5 -9 0 -6 -12 3 -10 -1 -29 -7 -41
-10 -18 -10 -21 2 -14 11 7 11 5 0 -9 -8 -9 -11 -21 -7 -27 3 -5 0 -10 -7 -10
-9 0 -9 -3 2 -10 11 -7 11 -10 2 -10 -9 0 -10 -5 -3 -19 8 -15 7 -20 -6 -25
-14 -6 -14 -8 2 -26 16 -18 16 -20 1 -26 -15 -6 -15 -8 1 -21 14 -12 15 -14 2
-10 -9 3 -16 -1 -16 -9 0 -7 4 -11 10 -7 12 7 6 -48 -8 -66 -8 -12 -6 -13 7
-8 12 4 15 2 11 -9 -3 -7 -10 -14 -16 -14 -6 0 -2 -7 9 -16 15 -13 16 -15 2
-10 -12 3 -15 1 -11 -9 3 -8 8 -13 12 -11 4 3 7 -4 7 -14 0 -10 -4 -16 -8 -13
-10 5 -3 -41 8 -58 4 -7 3 -9 -4 -5 -6 3 -13 2 -17 -4 -3 -5 -2 -10 4 -10 10
0 7 -31 -5 -53 -5 -7 0 -6 11 3 17 14 18 14 6 -7 -6 -13 -9 -23 -5 -23 3 0 0
-8 -7 -17 -8 -9 -9 -14 -3 -10 7 4 15 0 18 -9 3 -8 2 -13 -3 -9 -12 7 -19 -15
-13 -37 2 -10 9 -15 16 -12 6 3 3 -1 -6 -8 -15 -13 -15 -15 0 -27 14 -10 15
-11 1 -7 -9 2 -16 -2 -16 -10 0 -7 4 -11 10 -7 12 7 6 -48 -8 -66 -8 -12 -6
-13 7 -8 12 4 15 2 11 -9 -3 -7 -10 -14 -16 -14 -6 0 -2 -7 9 -16 15 -13 16
-15 2 -10 -12 3 -15 1 -11 -9 3 -8 8 -13 12 -11 4 3 7 -4 7 -14 0 -10 -4 -16
-8 -13 -10 5 -3 -41 8 -58 4 -7 3 -9 -4 -5 -6 3 -13 2 -17 -4 -3 -5 -2 -10 4
-10 10 0 7 -31 -5 -53 -5 -7 0 -6 11 3 17 14 18 14 6 -7 -6 -13 -9 -23 -5 -23
3 0 0 -8 -7 -17 -8 -9 -9 -14 -3 -10 7 4 15 0 18 -9 3 -8 2 -13 -3 -9 -12 7
-19 -15 -13 -37 2 -10 9 -15 16 -12 6 3 3 -1 -6 -8 -15 -13 -15 -15 0 -27 14
-10 15 -11 1 -7 -9 2 -16 -2 -16 -10 0 -7 4 -11 10 -7 12 7 6 -48 -8 -66 -8
-12 -6 -13 6 -9 13 5 16 2 12 -13 -3 -10 -10 -16 -16 -12 -6 4 -7 1 -1 -8 13
-21 14 -42 3 -55 -7 -8 -6 -15 2 -20 8 -5 9 -3 4 6 -6 9 -4 11 5 5 10 -6 10
-10 -3 -20 -14 -10 -14 -12 1 -24 14 -10 15 -11 1 -7 -9 2 -16 -2 -16 -10 0
-7 4 -11 9 -8 13 8 10 -10 -4 -25 -8 -9 -8 -11 -2 -8 7 4 15 0 18 -9 3 -8 2
-13 -3 -9 -16 10 -19 -20 -3 -37 13 -16 13 -18 -2 -24 -15 -6 -15 -8 1 -21 14
-12 15 -14 2 -10 -9 3 -16 -1 -16 -9 0 -7 4 -11 9 -8 4 3 8 -2 8 -11 0 -10 -5
-13 -12 -9 -7 5 -8 3 -2 -7 13 -21 14 -42 3 -55 -7 -8 -6 -15 2 -20 8 -5 9 -3
4 6 -6 9 -4 11 5 5 10 -6 10 -10 -3 -20 -14 -10 -14 -12 1 -24 14 -10 15 -11
1 -7 -9 2 -16 -2 -16 -10 0 -7 4 -11 9 -8 13 8 10 -10 -4 -25 -8 -9 -8 -11 -2
-8 7 4 15 0 18 -9 3 -8 2 -13 -3 -10 -15 10 -20 -22 -6 -34 8 -7 12 -16 9 -22
-3 -5 0 -17 7 -26 13 -16 12 -16 -7 0 -19 16 -20 16 -20 -2 0 -10 4 -16 8 -14
4 3 8 0 8 -6 0 -7 7 -10 15 -7 8 4 17 1 21 -5 5 -7 2 -8 -6 -3 -9 5 -11 4 -6
-3 5 -9 14 -8 31 4 18 11 25 12 31 3 4 -7 3 -9 -4 -5 -6 3 -13 2 -16 -3 -4 -5
2 -8 11 -7 9 2 19 8 21 14 2 7 8 12 13 12 6 0 7 -5 4 -10 -3 -6 -3 -10 2 -11
4 0 18 -2 30 -3 15 -2 20 2 16 13 -3 11 0 10 11 -3 9 -11 16 -14 16 -8 0 7 7
12 16 12 8 0 13 -4 10 -8 -3 -5 1 -9 9 -9 8 0 12 4 10 8 -10 15 24 17 46 2 12
-9 19 -12 16 -6 -4 6 0 13 8 17 8 3 17 0 21 -6 5 -7 2 -8 -6 -3 -9 6 -11 4 -5
-5 6 -10 11 -10 20 3 13 18 30 24 20 7 -9 -14 8 -12 24 3 11 10 13 10 7 0 -4
-7 -2 -13 3 -13 6 0 11 6 11 13 0 7 7 4 15 -7 8 -11 15 -14 15 -8 0 7 7 12 16
12 8 0 13 -4 10 -8 -3 -5 1 -9 9 -9 8 0 12 4 10 8 -10 15 24 17 46 2 12 -9 19
-12 16 -6 -9 14 16 24 33 13 8 -5 21 -5 29 -1 9 4 23 7 31 6 8 -1 22 4 30 9
13 9 13 9 2 -6 -8 -9 -9 -19 -4 -22 6 -3 12 1 15 8 3 8 15 14 26 13 11 0 18
-5 15 -9 -3 -4 -12 -5 -22 -2 -14 5 -14 4 -3 -4 15 -11 41 -5 41 9 0 5 5 9 11
9 5 0 8 -4 5 -8 -2 -4 4 -8 14 -8 15 0 17 4 8 21 -10 19 -10 19 8 4 20 -17 49
-15 38 3 -5 7 -1 7 12 0 16 -9 23 -6 41 16 21 27 22 27 37 7 15 -20 15 -19 11
4 -3 18 -2 22 7 13 8 -8 16 -5 30 11 11 12 17 16 13 10 -3 -7 -1 -13 4 -13 11
0 15 13 12 35 -1 6 5 2 13 -8 12 -15 14 -16 20 -2 3 8 0 15 -6 15 -6 0 -8 3
-5 6 4 4 13 1 21 -5 11 -9 16 -9 22 0 4 8 3 9 -4 5 -7 -4 -12 -3 -12 2 0 6 7
13 16 16 8 3 12 11 8 17 -4 8 -3 9 4 5 6 -4 9 -14 6 -24 -5 -15 -5 -15 6 1 6
9 8 22 5 27 -8 13 17 8 28 -5 4 -5 5 4 1 20 -3 19 -2 25 3 17 7 -10 14 -8 28
8 10 11 21 17 25 15 5 -3 6 5 2 17 -4 16 -2 19 8 13 10 -6 12 -4 7 8 -3 10 -2
17 4 17 5 0 13 8 16 17 11 28 36 52 46 46 6 -3 7 -1 3 6 -4 6 -11 9 -16 6 -5
-3 -12 -1 -15 5 -4 6 -3 10 2 9 27 -5 45 2 39 16 -3 8 -1 15 4 15 6 0 10 5 10
11 0 5 -4 8 -9 5 -5 -4 -7 3 -4 15 5 16 8 18 15 7 7 -9 8 -7 5 10 -3 12 -1 22
5 22 5 0 6 5 3 10 -3 6 0 10 7 10 9 0 9 3 -2 10 -12 8 -12 10 -1 10 8 0 11 3
8 7 -4 3 1 12 11 20 9 8 11 12 5 8 -8 -4 -13 1 -13 14 0 10 6 22 13 24 9 4 8
6 -2 6 -11 1 -11 4 0 18 10 11 10 14 2 9 -10 -5 -11 -1 -3 19 13 33 13 38 0
30 -6 -3 -7 1 -4 9 3 9 11 13 17 9 6 -4 7 -1 1 8 -19 31 -20 86 -1 116 4 6 3
14 -3 18 -11 7 -8 55 5 76 7 11 5 11 -10 -1 -17 -14 -18 -13 -12 3 4 10 7 21
7 23 0 3 5 2 12 -2 7 -5 8 -3 2 7 -19 31 -20 86 -1 116 4 6 3 14 -3 18 -11 7
-8 55 5 76 7 11 5 11 -10 -1 -17 -14 -18 -13 -12 3 4 10 7 21 7 23 0 3 5 2 12
-2 7 -5 8 -3 2 7 -20 33 -19 96 2 131 5 8 0 7 -11 -2 -17 -14 -18 -13 -12 3 4
10 7 21 7 23 0 3 5 2 12 -2 7 -5 8 -3 2 7 -19 31 -20 86 -1 116 4 6 3 15 -3
18 -8 5 -7 12 2 23 7 9 8 13 2 9 -6 -3 -11 0 -11 7 0 9 18 11 70 8 51 -2 67 0
62 8 -4 7 4 4 19 -5 25 -17 26 -16 27 1 0 18 1 18 9 -1 5 -11 9 -14 9 -7 1 7
6 10 11 7 6 -4 8 -11 5 -16 -4 -5 -1 -9 4 -9 6 0 11 6 11 14 0 8 5 18 12 22 7
5 8 3 4 -5 -6 -9 2 -11 31 -9 21 2 44 7 50 11 6 4 15 2 19 -4 4 -7 3 -9 -4 -5
-6 3 -13 2 -17 -4 -11 -18 27 -11 41 8 10 12 13 13 9 2 -4 -12 3 -15 40 -12
27 3 42 8 39 14 -4 6 5 2 20 -7 25 -17 26 -16 27 1 0 18 1 18 9 -1 5 -11 9
-14 9 -7 1 7 6 10 11 7 6 -4 8 -11 5 -16 -4 -5 -1 -9 4 -9 6 0 11 6 11 14 0 8
5 18 12 22 7 5 8 3 4 -5 -6 -9 2 -11 31 -9 21 2 44 7 50 11 6 4 15 2 19 -4 4
-7 3 -9 -4 -5 -6 3 -13 2 -17 -4 -3 -5 3 -10 13 -10 11 0 22 7 26 15 3 8 12
12 21 9 8 -3 13 -9 10 -13 -6 -11 39 -7 47 4 5 6 8 4 8 -4 0 -11 4 -10 13 4
11 14 16 15 22 5 5 -9 4 -11 -3 -6 -7 4 -12 2 -12 -4 0 -7 7 -9 16 -6 9 4 22
2 29 -4 9 -8 15 -8 20 0 3 5 24 10 46 10 27 0 38 4 33 11 -3 6 5 3 20 -6 25
-17 26 -16 27 1 0 18 1 18 9 -1 5 -11 9 -14 9 -7 1 7 6 10 11 7 6 -4 8 -11 5
-16 -4 -5 -1 -9 4 -9 6 0 11 6 11 14 0 8 5 18 12 22 7 5 8 3 4 -5 -6 -9 2 -11
31 -9 21 2 44 7 50 11 6 4 15 2 19 -4 4 -7 3 -9 -4 -5 -6 3 -13 2 -17 -4 -3
-5 3 -10 13 -10 11 0 22 7 26 15 3 8 12 12 21 9 8 -3 13 -9 10 -13 -6 -11 39
-7 47 4 5 6 8 4 8 -4 0 -11 4 -10 13 4 11 14 16 15 22 5 5 -9 4 -11 -3 -6 -7
4 -12 2 -12 -4 0 -7 8 -9 19 -5 11 3 23 0 27 -6 5 -9 10 -7 19 5 10 13 18 14
38 7 18 -7 27 -7 31 2 3 8 5 7 5 -2 1 -11 4 -10 14 4 11 14 16 15 22 5 5 -9 4
-11 -3 -6 -7 4 -12 2 -12 -4 0 -7 7 -9 16 -6 9 4 22 2 29 -4 9 -8 15 -8 20 0
3 5 24 10 46 10 27 0 38 4 33 11 -3 6 5 3 20 -6 25 -17 26 -16 27 1 0 18 1 18
9 -1 5 -11 9 -14 9 -7 1 7 6 10 11 7 6 -4 8 -11 5 -16 -4 -5 -1 -9 4 -9 6 0
11 6 11 14 0 8 5 18 12 22 7 5 8 3 4 -5 -6 -9 2 -11 31 -9 21 2 44 7 50 11 6
4 15 2 19 -4 4 -7 3 -9 -4 -5 -6 3 -13 2 -17 -4 -3 -5 3 -10 13 -10 11 0 22 7
26 15 3 8 12 12 21 9 8 -3 13 -9 11 -13 -2 -3 7 -6 20 -6 13 0 24 5 24 10 0 6
5 3 10 -5 9 -13 10 -13 10 0 0 13 1 13 10 0 7 -11 10 -11 10 -2 0 7 5 10 10 7
6 -4 8 -11 5 -16 -4 -5 -1 -9 6 -9 7 0 9 8 6 21 -4 15 -2 18 7 10 6 -5 24 -12
38 -15 21 -3 26 -1 21 11 -4 11 -2 14 5 9 7 -4 12 -15 13 -24 0 -12 3 -10 10
7 8 19 12 21 24 11 11 -9 22 -10 38 -3 26 12 49 6 41 -10 -3 -7 2 -3 10 7 15
18 20 15 17 -9 -1 -5 6 -1 14 9 8 11 15 14 15 7 0 -7 5 -9 10 -6 6 4 7 11 4
17 -4 7 -2 8 5 4 6 -4 8 -13 5 -19 -4 -7 -4 -9 1 -5 4 4 15 2 23 -5 13 -10 14
-9 3 11 -12 22 -11 23 8 13 24 -13 34 -14 27 -2 -5 8 42 6 87 -3 9 -2 15 -1
12 4 -3 4 2 11 11 14 12 5 15 2 10 -11 -5 -15 -4 -15 9 1 11 15 15 16 16 5 0
-8 4 -6 9 6 7 16 9 17 9 3 1 -9 6 -20 13 -24 7 -4 8 -3 4 4 -4 7 -3 12 3 12 6
0 8 8 4 18 -5 15 -4 14 9 -2 11 -14 17 -16 22 -7 6 9 11 9 22 0 8 -6 17 -9 21
-5 3 3 1 6 -5 6 -7 0 -12 3 -12 8 0 9 67 9 77 -1 4 -4 15 2 25 15 10 13 18 19
17 13 -3 -21 1 -35 11 -35 5 0 7 6 4 14 -3 8 0 17 7 22 8 5 10 3 4 -6 -8 -13
-7 -13 44 8 10 4 12 1 6 -9 -8 -12 -6 -12 8 0 9 7 26 11 37 8 11 -3 23 0 27 5
4 7 1 8 -8 3 -12 -7 -12 -5 -1 6 11 12 14 12 22 -1 8 -12 10 -11 11 5 l0 20 9
-20 c7 -17 9 -17 9 -2 1 9 6 17 12 17 5 0 7 -6 4 -12 -4 -7 1 -4 9 6 9 11 16
15 16 8 0 -6 7 -9 15 -6 8 4 13 10 10 14 -3 5 6 7 20 4 15 -3 25 0 25 8 0 6 7
3 15 -8 11 -14 14 -15 9 -3 -3 10 0 20 7 25 8 4 10 3 5 -4 -4 -7 -2 -12 3 -12
6 0 11 5 11 10 0 7 8 7 23 -1 l22 -12 -20 24 c-18 22 -18 22 -1 9 24 -19 22
-19 41 5 9 11 14 14 10 7 -7 -15 11 -16 20 -2 5 8 11 8 20 0 10 -8 15 -8 21 1
4 8 3 9 -4 5 -7 -4 -12 -3 -12 2 0 15 43 23 52 9 6 -9 8 -9 8 1 0 6 7 12 16
12 8 0 13 4 10 9 -4 5 4 7 16 3 15 -4 19 -2 14 7 -10 15 25 11 37 -4 5 -6 7
-3 3 7 -3 10 -1 20 4 23 6 4 10 1 10 -4 0 -6 4 -11 10 -11 5 0 9 3 9 8 -3 19
2 23 16 12 13 -11 14 -10 9 5 -5 13 -4 16 5 11 6 -4 18 -3 25 3 8 7 18 11 22
9 5 -1 19 3 30 10 12 6 25 8 29 4 5 -4 5 -2 1 5 -4 7 -14 10 -24 7 -14 -5 -14
-4 -2 4 8 6 17 9 21 6 4 -2 12 3 19 11 10 12 16 13 28 3 13 -11 15 -10 9 6 -6
16 -5 17 8 6 13 -11 16 -11 13 1 -2 8 7 15 20 17 14 2 20 8 16 15 -5 9 -4 9 6
0 16 -15 50 4 43 24 -4 9 0 11 13 6 12 -4 15 -3 10 6 -4 6 -4 11 1 10 4 -1 17
-1 28 0 17 1 18 3 5 12 -12 8 -10 9 10 7 29 -3 53 9 45 23 -4 5 -1 9 5 9 6 0
8 5 4 13 -6 9 -4 9 8 -1 17 -14 34 -1 23 18 -3 5 0 7 8 4 8 -3 22 2 31 11 9 9
16 13 16 9 0 -4 9 1 20 11 11 10 20 23 20 29 0 6 -9 0 -19 -13 -14 -19 -20
-21 -26 -10 -5 8 -5 11 0 7 5 -5 14 1 22 12 8 12 20 17 30 13 12 -5 15 -2 10
9 -4 12 -1 14 13 11 10 -3 21 1 26 8 5 9 2 10 -10 6 -11 -4 -15 -3 -10 4 3 6
14 9 24 6 14 -3 17 0 15 14 -3 12 1 16 11 12 8 -3 14 0 14 7 0 6 5 8 13 4 9
-6 9 -4 -1 8 -11 14 -10 16 11 14 19 -2 23 1 20 14 -3 10 3 20 13 24 15 6 15
4 3 -11 -13 -16 -12 -17 3 -5 10 8 14 20 11 29 -4 10 -2 14 4 10 15 -10 57 39
49 58 -3 9 -2 13 4 10 6 -3 13 0 16 9 3 8 12 12 20 9 8 -3 14 -2 13 3 -4 24 2
36 16 30 13 -5 14 -2 4 15 -8 15 -8 19 0 15 6 -4 11 -3 11 2 0 5 11 15 25 22
14 7 23 16 20 18 -3 3 -1 10 3 17 4 6 -1 2 -10 -8 -10 -11 -18 -14 -18 -9 0 6
5 14 10 17 6 4 7 11 4 17 -4 6 -3 8 3 5 18 -11 51 21 49 48 -2 13 1 22 5 19
17 -10 31 7 18 22 -10 12 -10 14 1 12 7 -2 15 3 18 11 3 9 0 11 -9 7 -8 -4 -5
-1 5 8 10 8 23 13 29 9 6 -3 7 -1 3 6 -4 6 -11 9 -15 6 -5 -2 -1 11 8 30 9 19
20 34 24 35 5 0 5 -4 2 -10 -3 -5 -1 -10 4 -10 14 0 14 17 1 25 -13 8 0 37 14
32 7 -3 12 3 13 12 3 62 8 79 19 70 8 -7 10 -2 6 16 -4 21 -1 24 14 19 17 -5
17 -4 2 6 -19 12 -13 44 6 33 6 -4 4 2 -4 12 -8 10 -10 16 -5 13 6 -3 19 6 29
20 11 14 15 22 9 19 -6 -4 -16 0 -23 8 -11 13 -10 14 5 9 13 -5 16 -4 11 4 -4
7 -2 12 6 12 9 0 9 3 -2 10 -11 7 -11 10 -2 10 7 0 10 5 7 10 -3 5 -1 10 5 10
6 0 8 5 5 10 -4 6 -12 8 -18 4 -7 -3 -1 4 13 15 14 11 21 21 16 21 -5 0 -3 7
4 15 11 13 10 14 -2 10 -9 -4 -15 0 -15 9 0 8 6 12 13 9 9 -3 11 6 9 32 -3 31
-1 36 13 31 16 -6 16 -5 0 7 -15 12 -15 14 0 25 14 9 14 11 1 6 -9 -3 -16 1
-16 10 0 8 6 12 14 9 9 -3 11 0 7 10 -3 9 0 26 6 39 11 22 11 23 -5 3 -17 -20
-17 -19 -10 5 4 14 13 31 19 39 9 12 8 13 -6 8 -10 -3 -18 -2 -18 3 0 6 5 10
11 10 5 0 8 4 4 9 -3 5 -1 13 5 16 8 5 7 12 -2 23 -11 14 -10 15 7 9 18 -6 18
-6 3 6 -15 12 -15 14 0 25 9 7 12 10 6 7 -7 -2 -14 2 -18 10 -3 8 -1 15 4 15
6 0 10 5 10 11 0 5 -4 8 -9 5 -5 -4 -8 2 -6 11 2 10 4 18 5 18 1 0 3 8 5 18 2
9 0 15 -4 13 -4 -3 -7 11 -7 29 0 20 4 31 11 27 5 -3 4 1 -2 9 -10 12 -10 18
-1 27 9 9 9 12 -2 12 -7 0 -10 3 -7 7 4 3 1 13 -6 21 -9 13 -9 14 1 8 14 -8
16 3 3 23 -7 10 -4 19 7 29 9 7 11 11 4 7 -13 -7 -33 34 -24 50 3 5 7 21 8 34
3 20 1 23 -7 11 -8 -11 -9 -6 -7 22 2 21 0 34 -6 31 -5 -3 -7 5 -4 21 3 14 1
26 -4 26 -6 0 -8 7 -4 15 3 8 0 15 -6 15 -7 0 -3 7 8 15 18 14 18 15 0 8 -13
-4 -17 -2 -14 8 3 8 -1 29 -9 47 -7 17 -10 32 -7 32 4 0 2 6 -4 13 -9 11 -26
69 -27 93 0 6 -5 18 -11 25 -10 12 -25 49 -29 69 -2 10 -89 185 -94 190 -4 3
-15 22 -26 43 -11 20 -23 37 -27 37 -5 0 -8 4 -8 10 0 20 -118 166 -204 252
-207 208 -476 371 -771 470 -49 16 -99 33 -110 38 -41 17 -282 74 -360 85 -16
3 -41 7 -55 10 -14 3 -63 10 -110 15 -47 6 -96 13 -110 15 -14 2 -70 7 -125
11 -138 10 -3655 11 -3656 2z m764 -1023 c-3 -9 -8 -14 -10 -11 -3 3 -2 9 2
15 9 16 15 13 8 -4z m2807 -61 c0 -8 -19 -13 -24 -6 -3 5 1 9 9 9 8 0 15 -2
15 -3z m1964 -1875 c-3 -5 -10 -7 -15 -3 -5 3 -7 10 -3 15 3 5 10 7 15 3 5 -3
7 -10 3 -15z m-179 -229 c-3 -5 -12 -10 -18 -10 -7 0 -6 4 3 10 19 12 23 12
15 0z m-345 -305 c0 -12 -19 -12 -23 0 -4 9 -1 12 9 8 7 -3 14 -7 14 -8z
m-2862 -460 c-3 -3 -9 2 -12 12 -6 14 -5 15 5 6 7 -7 10 -15 7 -18z m480 0
c-3 -3 -9 2 -12 12 -6 14 -5 15 5 6 7 -7 10 -15 7 -18z m160 0 c-3 -3 -9 2
-12 12 -6 14 -5 15 5 6 7 -7 10 -15 7 -18z m-1662 -1283 c-17 -16 -18 -16 -5
5 7 12 15 20 18 17 3 -2 -3 -12 -13 -22z"/>
<path d="M695 4911 c2 -11 0 -21 -5 -21 -5 0 -6 -7 -3 -17 4 -11 3 -14 -5 -9
-18 11 -14 0 5 -15 14 -12 16 -12 8 0 -5 10 -4 12 4 7 9 -6 9 -11 1 -21 -8
-10 -7 -14 2 -18 7 -2 10 -7 7 -11 -3 -3 -14 2 -25 12 -54 49 -138 78 -254 88
-72 7 -72 7 -61 -15 8 -15 9 -21 1 -21 -6 0 -8 -5 -4 -12 5 -8 2 -9 -10 -5
-10 4 -15 3 -11 -3 3 -6 14 -10 23 -10 14 0 15 -2 2 -10 -12 -8 -12 -10 4 -16
13 -5 15 -9 5 -15 -7 -4 -18 -4 -24 0 -13 11 -126 38 -190 46 -27 3 -65 8 -83
11 -30 4 -33 2 -27 -16 4 -13 2 -20 -7 -20 -10 0 -9 -3 2 -10 12 -8 12 -10 -5
-11 l-20 0 20 -9 20 -9 -20 -1 c-18 -1 -18 -2 -3 -11 10 -5 15 -16 12 -24 -4
-8 -1 -15 6 -15 9 0 9 -4 -1 -17 -12 -14 -12 -16 0 -8 11 6 13 4 8 -8 -6 -15
3 -22 25 -18 4 0 5 -6 2 -14 -4 -8 -9 -13 -13 -10 -4 2 -8 -2 -8 -10 0 -8 8
-12 20 -9 11 2 17 1 14 -2 -3 -3 -2 -17 4 -31 6 -16 5 -22 -1 -18 -6 3 -7 -1
-4 -9 3 -9 10 -13 15 -10 5 3 9 -2 9 -10 0 -9 5 -16 11 -16 5 0 8 -4 4 -9 -3
-5 -1 -12 5 -16 6 -4 8 -11 5 -16 -3 -5 1 -6 9 -3 11 4 13 0 9 -17 -4 -15 -3
-20 5 -15 7 4 12 1 12 -8 0 -9 7 -16 15 -16 14 0 20 -12 16 -33 -1 -4 7 -3 18
2 16 9 19 8 17 -6 -2 -9 -17 -22 -35 -28 -30 -10 -31 -11 -14 -28 16 -16 16
-17 0 -17 -16 0 -21 -9 -14 -27 1 -5 5 -7 9 -5 5 1 8 -5 8 -14 0 -8 4 -13 9
-10 5 3 11 -1 14 -9 4 -10 1 -12 -11 -8 -9 3 0 -6 21 -21 21 -14 42 -24 47
-21 5 3 12 0 16 -6 4 -8 3 -9 -4 -5 -17 10 -15 -9 3 -24 8 -7 22 -10 30 -6 9
3 14 2 11 -2 -3 -5 4 -14 14 -22 10 -8 16 -18 13 -23 -3 -6 -1 -7 6 -3 9 6 9
11 -1 24 -11 13 -9 13 13 -1 14 -10 29 -14 34 -10 4 5 6 3 2 -2 -3 -6 -2 -17
4 -25 6 -12 9 -12 9 -2 0 10 4 10 15 -2 9 -8 22 -13 30 -10 16 7 21 -11 6 -20
-5 -3 -7 -15 -4 -26 4 -15 0 -20 -13 -21 -11 0 -14 -3 -6 -6 6 -2 10 -9 6 -14
-3 -5 2 -9 11 -9 9 0 13 -5 10 -10 -4 -6 -11 -7 -17 -4 -7 4 -8 2 -4 -4 4 -6
14 -8 23 -5 11 4 14 3 9 -5 -6 -11 12 -17 37 -13 5 1 6 -3 2 -9 -3 -5 0 -10 8
-10 8 0 18 -7 21 -16 5 -14 9 -14 23 -3 14 12 16 12 11 -2 -5 -12 2 -16 31
-17 20 -2 38 -7 39 -13 3 -6 9 -5 18 2 10 8 14 8 14 0 0 -15 40 -14 40 2 1 6
7 1 15 -13 8 -14 14 -20 15 -14 0 7 7 15 16 18 15 6 15 4 3 -11 -13 -17 -13
-17 13 -1 26 17 32 9 15 -19 -4 -6 -3 -23 3 -37 9 -24 8 -26 -8 -17 -14 7 -19
6 -19 -4 0 -8 4 -12 9 -9 4 3 11 -2 14 -10 4 -10 19 -16 41 -16 23 0 32 -4 27
-11 -4 -7 -1 -10 7 -7 8 3 24 1 37 -3 13 -5 22 -5 22 2 0 6 6 6 18 0 13 -7 23
-6 31 2 10 9 11 8 5 -6 -5 -13 -2 -16 10 -11 9 3 14 10 11 14 -3 5 4 6 16 3
16 -4 17 -8 7 -14 -9 -6 -9 -9 -1 -9 6 0 15 5 18 10 8 13 52 13 60 0 5 -8 11
-8 19 -1 7 6 17 7 21 3 5 -4 5 -2 1 5 -3 6 -2 14 4 18 10 6 12 2 13 -32 2 -31
28 -43 55 -25 17 11 22 11 20 2 -2 -8 9 -13 29 -15 18 -1 30 2 28 6 -3 4 2 9
10 12 10 4 12 1 8 -11 -4 -12 2 -10 22 8 16 14 25 20 21 13 -3 -6 -2 -14 4
-18 5 -3 10 -1 10 4 0 6 5 11 11 11 5 0 7 -4 4 -10 -3 -5 -1 -10 4 -10 6 0 11
7 11 15 0 8 5 15 11 15 6 0 8 -8 5 -17 -6 -17 -5 -17 7 -1 10 12 17 14 24 7 8
-8 13 -7 18 2 5 8 4 10 -3 5 -8 -5 -10 -2 -6 9 6 14 8 14 18 -1 11 -15 14 -15
29 1 12 12 17 13 17 3 1 -7 7 -2 14 11 12 21 14 22 20 5 6 -16 8 -16 16 -4 6
8 10 11 10 6 0 -5 7 -3 15 4 13 11 15 10 10 -6 -5 -16 -4 -15 7 2 7 12 19 19
27 16 8 -3 11 0 7 6 -7 11 19 10 30 -1 4 -4 12 -7 18 -7 7 0 7 3 -1 8 -8 5 -9
13 -3 22 6 8 10 10 10 4 0 -6 7 -11 15 -11 8 0 14 5 13 11 -2 6 2 11 7 11 6 0
9 -4 7 -8 -1 -5 2 -6 7 -3 5 4 12 0 15 -6 3 -7 4 -4 3 7 -1 12 3 19 11 18 6
-2 12 2 12 8 0 8 5 7 15 -1 13 -11 14 -10 8 6 -6 17 -5 18 12 4 11 -9 16 -10
11 -2 -4 8 -1 12 9 12 12 0 15 5 11 17 -6 15 -5 15 13 -1 18 -16 19 -16 17 1
0 9 5 18 12 18 7 0 17 7 23 15 9 12 10 11 5 -5 -5 -18 -4 -17 14 4 11 13 26
21 35 17 9 -3 19 3 25 14 6 11 19 20 30 20 10 0 22 5 26 12 5 7 3 8 -7 3 -8
-5 -7 0 4 12 19 22 12 39 -10 22 -18 -16 -16 1 3 22 15 17 15 18 -2 17 -11 -1
-46 7 -79 16 -48 14 -70 28 -110 70 -27 29 -59 72 -71 97 -33 70 -58 124 -59
129 -7 30 -114 212 -135 230 -3 3 -19 22 -35 43 l-29 39 -20 -43 c-19 -41 -20
-42 -30 -18 -6 13 -13 26 -17 29 -3 3 -18 23 -32 45 -49 77 -149 165 -237 210
-66 33 -80 32 -80 -5 0 -16 -4 -30 -10 -30 -5 0 -6 -7 -3 -17 4 -10 2 -14 -4
-10 -7 5 -9 -1 -5 -15 l5 -22 -29 21 c-120 85 -199 115 -346 130 -54 5 -57 4
-53 -16z m-431 -667 c3 -8 2 -12 -4 -9 -6 3 -10 10 -10 16 0 14 7 11 14 -7z
m896 -498 c0 -3 -4 -8 -10 -11 -5 -3 -10 -1 -10 4 0 6 5 11 10 11 6 0 10 -2
10 -4z m58 -18 c-2 -7 2 -12 9 -11 8 2 10 -4 6 -14 -6 -14 -7 -14 -19 2 -7 10
-11 22 -8 26 8 13 14 11 12 -3z"/>
<path d="M401 4114 c0 -11 3 -14 6 -6 3 7 2 16 -1 19 -3 4 -6 -2 -5 -13z"/>
<path d="M5950 3049 c0 -5 5 -7 10 -4 6 3 10 8 10 11 0 2 -4 4 -10 4 -5 0 -10
-5 -10 -11z"/>
<path d="M5325 2581 c-3 -5 -2 -12 3 -15 5 -3 9 1 9 9 0 17 -3 19 -12 6z"/>
<path d="M4426 2302 c-3 -5 1 -9 9 -9 8 0 12 4 9 9 -3 4 -7 8 -9 8 -2 0 -6 -4
-9 -8z"/>
<path d="M3975 2260 c-3 -5 -1 -10 4 -10 6 0 11 5 11 10 0 6 -2 10 -4 10 -3 0
-8 -4 -11 -10z"/>
<path d="M2145 2250 c-3 -6 1 -7 9 -4 18 7 21 14 7 14 -6 0 -13 -4 -16 -10z"/>
<path d="M2465 2250 c-3 -6 1 -7 9 -4 18 7 21 14 7 14 -6 0 -13 -4 -16 -10z"/>
<path d="M2945 2250 c-3 -6 1 -7 9 -4 18 7 21 14 7 14 -6 0 -13 -4 -16 -10z"/>
<path d="M3585 2250 c-3 -6 1 -7 9 -4 18 7 21 14 7 14 -6 0 -13 -4 -16 -10z"/>
<path d="M1425 800 c-3 -5 -1 -10 4 -10 6 0 11 5 11 10 0 6 -2 10 -4 10 -3 0
-8 -4 -11 -10z"/>
</g>
</svg>
